<mxfile host="Electron" agent="Mozilla/5.0 (Macintosh; Intel Mac OS X 10_15_7) AppleWebKit/537.36 (KHTML, like Gecko) draw.io/24.7.5 Chrome/126.0.6478.183 Electron/31.3.0 Safari/537.36" version="24.7.5">
  <diagram name="Page-1" id="tKdkUbJSu1rD5ENxLsQZ">
    <mxGraphModel dx="2785" dy="2718" grid="1" gridSize="10" guides="1" tooltips="1" connect="1" arrows="1" fold="1" page="1" pageScale="1" pageWidth="850" pageHeight="1100" math="0" shadow="0">
      <root>
        <mxCell id="0" />
        <mxCell id="1" parent="0" />
        <mxCell id="injqJZy0U-lsbSJqWPh--1" value="" style="shape=image;verticalLabelPosition=bottom;labelBackgroundColor=default;verticalAlign=top;aspect=fixed;imageAspect=0;image=data:image/png,iVBORw0KGgoAAAANSUhEUgAAAxoAAAD3CAYAAACaciKTAAAAOXRFWHRTb2Z0d2FyZQBNYXRwbG90bGliIHZlcnNpb24zLjguMywgaHR0cHM6Ly9tYXRwbG90bGliLm9yZy/H5lhTAAAACXBIWXMAAA9hAAAPYQGoP6dpAAAVPklEQVR4nO3dbWxeZf0H8NOybrUbbHVlwOgehCFj1FGdiA/DbbCgKDGAOPWFQZQYeYEJ0YgvDIm80vhC0LjEhGSIJsQHRIGAIpOHLGMsW9xmaTa6rXMte3KDbuu2bt16+4rkr3/9Xfc8V9u73efz9nvuc11d7/vsfHuS+1dXqVQqBQAAQEb1o70BAABg/FE0AACA7BQNAAAgO0UDAADITtEAAACyUzQAAIDsFA0AACA7RQMAAMhuQrUH1tXVDec+gLMwVudsXnfddWG+fv36UudfsGBB8pjOzs4wv/LKK8P80KFDYX7w4MHkHsa6xsbGMD99+nSp/BOf+ERyDw0NDWG+adOmMO/t7U2uEWlpaQnzHO+DhQsXllrjqquuCvMXXnjhrPc02tyLQO2o5l7EEw0AACA7RQMAAMhO0QAAALJTNAAAgOwUDQAAIDtFAwAAyE7RAAAAsqt6jgZAWak5GTfddFOYP//882F+2WWXJffQ1dUV5tu2bUueYzhdffXVYf7666+XXiM1z+S1114L84GBgTCfNWtWmPf09IR5Nb+DXbt2JY+JTJo0KcxPnjwZ5qkZFvPnzw/z1DyWoiiKAwcOhPm+ffvCvLm5ObkGY09qdkEtzBoZC3usdePl39ATDQAAIDtFAwAAyE7RAAAAslM0AACA7BQNAAAgO0UDAADITtEAAACyq6ukvqj3nQPHyPf1wrmgyo9tzbn88svDPPW9/xs3biy9h7lz54Z52fkMd911V5jX18d/39m+fXuYHz58OLmHTZs2hfnMmTPDfM+ePck1ymhoaAjzwcHB0muk5lh0d3eH+YQJ8ZipU6dOhXmOn2Hq1KlhXs17ITIWryPuRSiK8TFj4lz4GYrCEw0AAGAYKBoAAEB2igYAAJCdogEAAGSnaAAAANkpGgAAQHaKBgAAkJ05GjAGjcXvvy+K8teR1ByOEydOJM+R+rfbu3dvmM+bNy/MDx48GOZ9fX1hntLW1pY8pqOjI8xT8xmuuOKKMH/f+94X5v39/WG+bdu2MN+yZUuY53DHHXeE+W9/+9swnz59epgfOXIkzKuZs5FaI/V5Sr0Xx+J1xL0ItWI8zMEoyxwNAABgVCgaAABAdooGAACQnaIBAABkp2gAAADZKRoAAEB2igYAAJCdogEAAGRnYB+MQWNx0FZRFMWSJUvC/JVXXil1/vb29uQxmzZtCvPm5uYwf/vtt89iR+PT/Pnzw3zr1q1hPnfu3DBftGhRcg/PPPNMmJ88eTJ5jjJSgxt7enrCPPVvWBRFMTAwEOa7du0K89R7OTWcsha5FxkZwz2MzrC78cHAPgAAYFQoGgAAQHaKBgAAkJ2iAQAAZKdoAAAA2SkaAABAdooGAACQ3YTR3gDnnu9+97th/r3vfS/M6+vjfrx06dIwf/nll8Oc4ZOan9DU1BTmf/zjH8M89d4oiqKYNWtWqXzfvn1hvnPnzuQeyqy/fPny5DlWrVpVag8pLS0tpV6fmv9w9OjR5Dnuu+++ML/33nvDfPLkyWF+zz33hPnjjz8e5imbN29OHtPW1hbmqVkhqfcq/DfDPceiFuZkuBcZGZ5oAAAA2SkaAABAdooGAACQnaIBAABkp2gAAADZKRoAAEB2igYAAJCdORpk9eUvfzl5zP333x/mQ0NDpfZQqVRKvZ7hk5o9kJrPkJoh8eqrryb3cOzYsTAfHBwM8ylTpiTXKKOvry/Mq5mRkdpjf3//2Wzp/1mzZk2Yp+alHDp0KMwffPDB5B5WrFgR5p2dnWH+8Y9/PMx7enrCfNmyZWG+Y8eOML/99tvDvCiK4qGHHgrzhQsXhnnZaymMVe5FaocnGgAAQHaKBgAAkJ2iAQAAZKdoAAAA2SkaAABAdooGAACQnaIBAABkZ44GWc2ZMyd5TGNj4wjshFqUmlGxd+/eUnk1Jk6cGObTpk0L84GBgTBvbm4O80svvTTMOzo6wrwaF198cZgfOXIkzA8cOBDmN954Y5ivXr06zFO6urqSx6RmrnzsYx8L87/85S9h3traGubd3d1hnnqfPfnkk2FejS1btoR56n0A45V7kdrhiQYAAJCdogEAAGSnaAAAANkpGgAAQHaKBgAAkJ2iAQAAZKdoAAAA2ZmjwVlZvnx5mN97772l19i6dWuY33LLLWG+f//+0ntgdMycOTPM9+zZU3qNU6dOhXnq/Td16tQwT81f2LVrV5jnkNrj9u3bw/zuu+8O8w0bNpz1nv6ve+65J8yvvfba5Dk6OzvD/PDhw2H+pS99Kczr6+O/w/X29oZ5yuzZs0u9vijScwD27dtXeg2oRTnuRRoaGsL8b3/7W5iP9r1IpVJJHlNXVzese6iGJxoAAEB2igYAAJCdogEAAGSnaAAAANkpGgAAQHaKBgAAkJ2iAQAAZGeOBv9i8eLFYb5q1aowT31/fzV++MMfhvnf//730mtQm8rOybjmmmuSx2zevLnUGqn5DKnZBv39/WG+ZMmSMG9qagrzoiiK5557LnlM5JFHHin1+k9/+tNhvnLlylLnL4qi+Otf/xrmqVkhCxYsCPO1a9eGeWoOxgUXXBDmH/nIR8K8KIri6aefDnNzMhivRuJeZHBwMMy/+tWvhvlo34vUwoyManiiAQAAZKdoAAAA2SkaAABAdooGAACQnaIBAABkp2gAAADZKRoAAEB25mjwL+68884wnzlzZuk1XnrppTB/7LHHSq9BbUp9t/kVV1wR5lu3bg3zamZkTJgQX/ZOnz4d5ueff36Y79+/P8xbW1vDvLu7O8wHBgbCfCR86EMfCvN58+aF+c9+9rMwv+iii5J7SM2xuO+++8L8kksuCfPjx4+H+e7du8M8JfU+K4qiePvtt8N87ty5YZ76GaBWuRcZPzzRAAAAslM0AACA7BQNAAAgO0UDAADITtEAAACyUzQAAIDsFA0AACA7RQMAAMiurlKpVKo6sK5uuPfCCGhpaQnz1LCxoaGhMO/r60vuYcWKFWH+4osvJs9xrqvyY1tzyl5HUkOcnn322eQ5/vGPf4R5alhcf39/mB87dizMU0PWrr/++jD/xS9+EeZFURQ333xzmD/33HNhnhqs+NGPfjTMH3rooTB/73vfG+a/+93vwrwoiuLrX/96mKd+z6nfw65du5J7GG6pwYfbt28P8/POOy/MqxkaWGtq4V4kdf2thT3Wulq4F0ntYbR/j2PhfVbNvYgnGgAAQHaKBgAAkJ2iAQAAZKdoAAAA2SkaAABAdooGAACQnaIBAABkN2G0N0Beqe+Gf+KJJ4Z1/Z/85CfJY8zJ4L+ZMWNGmP/85z8P82nTppXew6FDh8K8ubk5zFNzNOrr47/vvPrqq2G+bNmyMC+KonjhhReSx0QOHz4c5h/4wAfC/PLLLw/z1CyS7u7uMC+K9JyMlNQMieGes5H6Dv+iSL+XUs6cOVPq9fxntTC/oNaNhXuRBx98cFj3UNZ4eZ95ogEAAGSnaAAAANkpGgAAQHaKBgAAkJ2iAQAAZKdoAAAA2SkaAABAduZojDOf/OQnw3zhwoWlzr969eowf/jhh0udn3PbgQMHwnz+/PlhfvTo0eQafX19YZ6a5ZHaY8rOnTtLvX5oaCh5zODgYKk1urq6wnzevHmlzr9q1aow/9a3vlXq/EVRFLfddluYr127Nsx7e3vDfPHixWG+Zs2aML/hhhvCvCiK4te//nXymEhjY2Op18P/yr0I7/BEAwAAyE7RAAAAslM0AACA7BQNAAAgO0UDAADITtEAAACyUzQAAIDs6iqVSqWqA+vqhnsvVOHWW28N80cffTTMJ0+eHOap75ZfsWJFmO/fvz/MyaPKj23NWbRoUZjX18d/++jo6AjzgYGBs97TSJs+fXqYHzp0aNj38O1vfzvMb7nlljC//vrrS63f3t4e5ps3by51/qIoP+eiFqTmxkybNi3M161bF+Zj8TriXqQ2uBehKKq7hniiAQAAZKdoAAAA2SkaAABAdooGAACQnaIBAABkp2gAAADZKRoAAEB2E0Z7A/yruXPnhvkTTzwxrOvv3LkzzH03NWVs3bo1zFtbW8P8zJkzObfzH6VmfezZsyfMJ0yIL6s9PT1hPmXKlDBvaWkJ86JIz1e46667wjw1v+H3v/99mKeuY42NjWGe+o7+avaQmpOR+hlT79XUzJehoaEwr8a+ffvCPLXH2bNnl94D5yb3IuTiiQYAAJCdogEAAGSnaAAAANkpGgAAQHaKBgAAkJ2iAQAAZKdoAAAA2ZmjUWPuv//+MM/x3eyR73//+8N6fs5tx48fD/M33nij1PlnzJiRPGbSpElhfuzYsTDfu3fvWe3p3zU0NIT5smXLwryrqyu5xrp168K87HfQp2Z53HjjjWH+1ltvlVo/h23btoX5pZdeGuYHDx4M85MnT571nv5dX19fqdcPDg6W3gPnJvci5OKJBgAAkJ2iAQAAZKdoAAAA2SkaAABAdooGAACQnaIBAABkp2gAAADZmaMxgtrb25PH3HTTTcO6hz/84Q9hnvpueSijra0tzC+88MIwf/HFF8O8vj79t5Oenp4wnz59ephfd911Yf7aa6+F+fvf//4wf/rpp8O8mp9x586dYX7VVVeFeWpWyJYtW8I8NSejqakpzK+99towL4qi6O3tTR4T2bFjR5i/+eabYX7ZZZeFeep3UI3U56WjoyPMy858YXxyL1KdSqUS5nV1dSO0k7HNEw0AACA7RQMAAMhO0QAAALJTNAAAgOwUDQAAIDtFAwAAyE7RAAAAslM0AACA7OoqqYkk7xxoMElpBw4cSB7T3Nxcao1169aF+c033xzm/f39pdZnZFT5sa0511xzTZh3dnaG+enTp0vvYcKEeE7pN7/5zTD/wQ9+UGr9z3zmM2H+1FNPhfmjjz6aXGPy5Mlhfscdd4R5atDbrbfeGubr168P8xwmTpwY5qdOnQrz1tbWMC87EHAkzJgxI8xT/+eMxeuIe5Hy3IuQSzXXEE80AACA7BQNAAAgO0UDAADITtEAAACyUzQAAIDsFA0AACA7RQMAAMgu/kJ5spo+fXrymKGhoVJrrFy5Msx9NzWj6cILLwzzsnMyUjMyiqIo2tvbwzw1J2PRokVhnpptkJrP8NnPfjbM77zzzjDP4YEHHgjzkZiTkZKak5EyFuZkpFQzD4Hak5o9MNyzQtyLjIzR/j3XCk80AACA7BQNAAAgO0UDAADITtEAAACyUzQAAIDsFA0AACA7RQMAAMjOHI2MVq1aFeb19cPf69auXTvsa8D/avXq1WG+dOnSMN+wYUOYV/Pd7KlzlHXmzJkwv+CCC8L83e9+d5hXM2vkrbfeCvPUrI9HHnkkuUYZkyZNCvPW1tbkOXbs2BHmc+fODfOmpqYw7+zsTO6hjNmzZyeP2b17d6k15syZU+r1DI/hnp+Qmt9QjfPOOy/MU9c59yLljZc5HJ5oAAAA2SkaAABAdooGAACQnaIBAABkp2gAAADZKRoAAEB2igYAAJCdORpnob29PcyXL18e5kNDQ8k1Tp06FeY//elPw3z//v3JNWC0TJw4McxfeumlMF+8eHGYp+ZHFEV6/sLJkyfDfOPGjck1yvjTn/4U5s8//3zyHJ/61KfC/IEHHgjztra2MO/o6Ajz1KyQI0eOhHlDQ0OYVyP1e9y1a1eYX3LJJWF+/PjxME/NIUj9G1RjyZIlYf7yyy+XXoPak7oX6e3tDfOZM2cm1zhx4kSY/+hHPwpz9yLl51yMlTkZKZ5oAAAA2SkaAABAdooGAACQnaIBAABkp2gAAADZKRoAAEB2igYAAJBdXaVSqVR14Dj5Pt8yli5dGuZ//vOfw7y+Pt3ruru7w3zevHnJczD+VfmxrTnj4TrS1NQU5l/84hfDPDUr57HHHgvz1HfkF0VRdHV1hfkNN9wQ5ldffXWYv/7668k9RFJzMgYHB5PnuPvuu8P8qaeeCvMDBw4k1xhOF110UfKYw4cPh3ljY2OYp96LK1euTO6h1oyHa8hwS31+3IuQSzX3Ip5oAAAA2SkaAABAdooGAACQnaIBAABkp2gAAADZKRoAAEB2igYAAJCdORpnwRwNaoU5Gv+72267Lcw3bNgQ5j09PWE+ZcqUMD9+/HiYv/nmm2F+8cUXh3lRFMXu3bvDfM6cOWE+bdq0MB8aGgrzI0eOhPlImDhxYpin5pmkLFiwIMw7OztLnX8kjMXrSC1cQ0abe5HxIfX5GwvvdXM0AACAUaFoAAAA2SkaAABAdooGAACQnaIBAABkp2gAAADZKRoAAEB2E0Z7A2PJ1q1bw3zt2rVhvnjx4pzbgTFn4cKFYb5ly5YwT82oWL58eXIPTz75ZJin5lS0t7eH+RtvvBHmqRkUzz77bJh/5StfCfOiKIqZM2cmj4n09fWVev3nPve5MP/Nb34T5t/5zneSa/zyl78M89ScjJMnT4Z5ak7Axo0bw/wb3/hGmP/4xz8O82pMnTo1zOfPn196DWqPe5HxYSzMycjBEw0AACA7RQMAAMhO0QAAALJTNAAAgOwUDQAAIDtFAwAAyE7RAAAAslM0AACA7OoqlUqlqgPPkcEiMBZU+bGtOanryKxZs8K8p6cn53b+oyuvvDLMt23bFubvete7wvzEiRNnvaeR1tbWFuYdHR1h3tjYGOYf/OAHw3zNmjVhXo3zzz8/zI8ePVp6jci0adPCvJqhiF/72tfCfP369WG+adOmMB+L1xH3IlA7qrmGeKIBAABkp2gAAADZKRoAAEB2igYAAJCdogEAAGSnaAAAANkpGgAAQHYTRnsDAO9Izcn41a9+Feaf//znk2s0NTWFeWpORsoXvvCFMF+1alWYf/jDHw7zdevWnfWezlZqTkbKwMBAmDc3N5c6f1EUxdSpU8P88OHDYT7c/86pORktLS3Jcxw/fjzMU3MyAEabJxoAAEB2igYAAJCdogEAAGSnaAAAANkpGgAAQHaKBgAAkJ2iAQAAZFdXqVQqVR1YVzfcewGqVOXHtuakriMTJ04M8zNnzoT5e97znuQeUjMeent7w3zy5MlhfuzYseQeynjllVeSxzzzzDNh/vDDD4f57bffHuaPP/54cg+jraGhIcwHBwdHaCe1ayxeR9yLUBTp9673ycio5hriiQYAAJCdogEAAGSnaAAAANkpGgAAQHaKBgAAkJ2iAQAAZKdoAAAA2VU9RwMAAKBanmgAAADZKRoAAEB2igYAAJCdogEAAGSnaAAAANkpGgAAQHaKBgAAkJ2iAQAAZKdoAAAA2f0Tda5+4nKsy4wAAAAASUVORK5CYII=;" parent="1" vertex="1">
          <mxGeometry x="590" y="-71" width="794" height="247" as="geometry" />
        </mxCell>
        <mxCell id="injqJZy0U-lsbSJqWPh--2" value="" style="shape=image;verticalLabelPosition=bottom;labelBackgroundColor=default;verticalAlign=top;aspect=fixed;imageAspect=0;image=data:image/png,iVBORw0KGgoAAAANSUhEUgAAAxoAAAD3CAYAAACaciKTAAAAOXRFWHRTb2Z0d2FyZQBNYXRwbG90bGliIHZlcnNpb24zLjguMywgaHR0cHM6Ly9tYXRwbG90bGliLm9yZy/H5lhTAAAACXBIWXMAAA9hAAAPYQGoP6dpAAAJ2UlEQVR4nO3dPY9cZxnH4efszOxL4jWxyCZ2BCtQEktAkAgFHRQg+ApEoQGJBtFBh0SEBIpSUENB6JCVBiUNCgKloeBFinAfJApLiRJMFOO1vS+zMw8FHwBr7798PDvX1d/n3D4z58z+ZgoPvffeAAAAgjbGXgAAADh/hAYAABAnNAAAgDihAQAAxAkNAAAgTmgAAABxQgMAAIgTGgAAQNx07AUAWC8Pw/8TOwzD2CvA2dw9qs0/ul3f4eCwNr+7U99hxd0+XpbmL26txm8Fq7ElAACwUoQGAAAQJzQAAIA4oQEAAMQJDQAAIE5oAAAAcUIDAACIExoAAECc0AAAAOKEBgAAECc0AACAOKEBAADECQ0AACBOaAAAAHFCAwAAiBt6733sJQBWxvy0Nr9R/H5nMv73Q4tl7WOjON5aa202GUrz1X/DZKN2fuDsbtwqPodba/uPTUvzN+8uSvO3j2rPoKc/Xtv/QRn/EwsAADh3hAYAABAnNAAAgDihAQAAxAkNAAAgTmgAAABxQgMAAIgTGgAAQJzQAAAA4oQGAAAQJzQAAIA4oQEAAMQJDQAAIE5oAAAAcUIDAACIExoAAEDc0HvvYy/BevnP0bI0/8hsKM3PJrV5zu5heNwMw7ivf/UajL1/a621Re0evreor3BcPMalu3dqB3j8Ym0+cS88DO8FVs71907Kx3j+qc3S/Ds356X5q3uz0nxrrd24dVqa33/3vdoCn9uvza8Iv2gAAABxQgMAAIgTGgAAQJzQAAAA4oQGAAAQJzQAAIA4oQEAAMQJDQAAIE5oAAAAcUIDAACIExoAAECc0AAAAOKEBgAAECc0AACAOKEBAADEDb33PvYSrI7E2+XPN05K8599Ylaav7Sjrzm76j0wDENok/HMF7VrcOtoWd5ha1q7jhfborbAsnYN7mxMa+dvrV3Y8ixjTR3W/o5orbV7k9o9+MjitLbAzmZtfkV4SgEAAHFCAwAAiBMaAABAnNAAAADihAYAABAnNAAAgDihAQAAxAkNAAAgTmgAAABxQgMAAIgTGgAAQJzQAAAA4oQGAAAQJzQAAIA4oQEAAMQNvfc+9hI8OEfz2su9/cNf1Ze4d1Kbf+mbtfn9vdo8jGmxLB/i+genpfkru5PS/OXX3irNR3zx6dr8c/u1+a1ZbR5W2J3j2nPswqu/ry/x1c/X5j/1ZG1+Z7M0fnxa//N9azqUj/H/+EUDAACIExoAAECc0AAAAOKEBgAAECc0AACAOKEBAADECQ0AACBOaAAAAHFCAwAAiBMaAABAnNAAAADihAYAABAnNAAAgDihAQAAxAkNAAAgbjr2AjxY2795q3aAz3yyvsSXrtbm9/fqO7CS5otePsas+vXKMJR3qPjwuH4NvnBlVpofXv9rbYEPD2rzrbX23a/Xj1GxVbuGrddfx7Hfi+vqH/+el+affbz43jkHLrz8Wu0A33i+vMPN/adK83s7k9oCxWfA1nQ17n+/aAAAAHFCAwAAiBMaAABAnNAAAADihAYAABAnNAAAgDihAQAAxAkNAAAgTmgAAABxQgMAAIgTGgAAQJzQAAAA4oQGAAAQJzQAAIA4oQEAAMQJDQAAIG7ovfexl+D+VV+u4Ws/Ls3P//jT0nxrrc0mQ/kYMJrqI3NZmz9a1u+fg5NlaX7vxVdqC/z8O7X51lp/5kppfhiK17H6PqieH8Z096g2f+XbtfmPrtXmW2tt4rv2B8FVBgAA4oQGAAAQJzQAAIA4oQEAAMQJDQAAIE5oAAAAcUIDAACIExoAAECc0AAAAOKEBgAAECc0AACAOKEBAADECQ0AACBOaAAAAHFCAwAAiJuOvcA6mS96+RizP/y9doDn9mvnnwy187PeevEeGB6C9191h+I9dHiyrJ2/tbb38rXaAZ65Uhr/6BOXa+dvrV0a+70w9vnhjI5P63+LbP3u7doBXvhybX7ie/JV4ZUCAADihAYAABAnNAAAgDihAQAAxAkNAAAgTmgAAABxQgMAAIgTGgAAQJzQAAAA4oQGAAAQJzQAAIA4oQEAAMQJDQAAIE5oAAAAcUIDAACIm469wDqZvfl2/SBv/K00fvTL75fmt0vTrL1hGHuD1nsvzQ/Ff8PRvHb+S79+szTfWmvt+j9r86//qDT+2GbgfVB8HR+G9yKMYeuNv9QP8tvaMd5/9Qel+cul6f955+a8NH91bxbY4vzziwYAABAnNAAAgDihAQAAxAkNAAAgTmgAAABxQgMAAIgTGgAAQJzQAAAA4oQGAAAQJzQAAIA4oQEAAMQJDQAAIE5oAAAAcUIDAACIExoAAECc0AAAAOKmYy+wVj64VT/GT14ojW/PhvoOsMKGZS/N31vU5g9Pa/PbT3ysNN9aa+0X3yuN983aR8cweA6xxq79qTb/4ldq88X7t7XW2s++VRq/vDup71B0dW9WO8DBYW1+d6c2vyL8ogEAAMQJDQAAIE5oAAAAcUIDAACIExoAAECc0AAAAOKEBgAAECc0AACAOKEBAADECQ0AACBOaAAAAHFCAwAAiBMaAABAnNAAAADihAYAABA39N772EusisWydqkmG0N5h/cPFqX5y7uT8g5wZtXHzVC/h8ZWfo7cPSrvcLS9XZrfnhVfh8THzjl4L8BZ3D5eluYvvvuv+hKffrI2fx7u38OT2vzmtDY/WY3fClZjSwAAYKUIDQAAIE5oAAAAcUIDAACIExoAAECc0AAAAOKEBgAAECc0AACAOKEBAADECQ0AACBOaAAAAHFCAwAAiBMaAABAnNAAAADihAYAABA39N772EusiuqlOl3Wd5hNhvpBYI1V7+NhqN2Dx6e1888X9Uf2hc3ic6R4DYCCg8PS+OLR7fIKkw3PAO6PXzQAAIA4oQEAAMQJDQAAIE5oAAAAcUIDAACIExoAAECc0AAAAOKEBgAAECc0AACAOKEBAADECQ0AACBOaAAAAHFCAwAAiBMaAABAnNAAAADipmMvsEqWvTa/WNZ3mE3qx4B1NgzDqOefFr/euTcPLDHyNei9+DBt47+OMJrdndL4JHD/wf3yiwYAABAnNAAAgDihAQAAxAkNAAAgTmgAAABxQgMAAIgTGgAAQJzQAAAA4oQGAAAQJzQAAIA4oQEAAMQJDQAAIE5oAAAAcUIDAACIExoAAECc0AAAAOKG3nsfewkAAOB88YsGAAAQJzQAAIA4oQEAAMQJDQAAIE5oAAAAcUIDAACIExoAAECc0AAAAOKEBgAAECc0AACAOKEBAADECQ0AACBOaAAAAHFCAwAAiBMaAABAnNAAAADihAYAABAnNAAAgDihAQAAxAkNAAAgTmgAAABxQgMAAIgTGgAAQJzQAAAA4oQGAAAQ919V6y14RcvRfQAAAABJRU5ErkJggg==;" parent="1" vertex="1">
          <mxGeometry x="590" y="176" width="794" height="247" as="geometry" />
        </mxCell>
        <mxCell id="injqJZy0U-lsbSJqWPh--3" value="" style="shape=image;verticalLabelPosition=bottom;labelBackgroundColor=default;verticalAlign=top;aspect=fixed;imageAspect=0;image=data:image/png,iVBORw0KGgoAAAANSUhEUgAAAxoAAAD3CAYAAACaciKTAAAAOXRFWHRTb2Z0d2FyZQBNYXRwbG90bGliIHZlcnNpb24zLjguMywgaHR0cHM6Ly9tYXRwbG90bGliLm9yZy/H5lhTAAAACXBIWXMAAA9hAAAPYQGoP6dpAAAK1ElEQVR4nO3dz2vkdx3H8fd3Jplkk3S769rWtkopSEFQqCjFqwcPBQ9CPXjwIigoeBb8G0Tw1B76P3gt6E1Q1KL0oqKlVim0Xeu6u03zY5LMfP0TXPp+mW82eTzur8lndnc+mefMYYdxHMcCAAAImk19AAAA4PIRGgAAQJzQAAAA4oQGAAAQJzQAAIA4oQEAAMQJDQAAIE5oAAAAcRtTH4DztVo//P8/42zo7Yeh+QBwxfl/Xt0jNJye9fbHp71995doVdWs9zn1uL3ZPwOTe5B70DcaAABAnNAAAADihAYAABAnNAAAgDihAQAAxAkNAAAgTmgAAABxQgMAAIgTGgAAQJzQAAAA4oQGAAAQJzQAAIA4oQEAAMQJDQAAIE5oAAAAccM4juPUh+AcLU97+7NV+wh3Z4vW/sb20NoPQ2/PFbda9/br5n4W+Hxo1nwNdF9D9w97+6qq7c3evnuX7W739nCFna6mf+vZvcq71+DGBfiov/+r4H8/wAV4mgAAwGUjNAAAgDihAQAAxAkNAAAgTmgAAABxQgMAAIgTGgAAQJzQAAAA4oQGAAAQJzQAAIA4oQEAAMQJDQAAIE5oAAAAcUIDAACIExoAAECc0AAAAOI2pj4A52z/qLf/4H77CEdPP9Xaf3i8bu2fuemfPQ3z5ucz3f049vZVVSdn0+7fv9vbV9Xru59s7R/f7d0Dz+y25jCZ372zbD/GC59etPar3q/x2j4+7j1AVb17ttna39rp3eVbG1fjs/6r8SwBAIBzJTQAAIA4oQEAAMQJDQAAIE5oAAAAcUIDAACIExoAAECc0AAAAOKEBgAAECc0AACAOKEBAADECQ0AACBOaAAAAHFCAwAAiBMaAABA3DCO4zj1Ia6MxB/14bK3/9M7vf2nb/X2VVVbm635+Im91n4YhtYeJpW4R9a9x7h70vvxR6f95/CzX++39s8/2buHXvr8Tmu/EfiYb9a8ytyFD6dV8/WbeP2tm/vr79zuPcDN3vuAqqpv/aL3furbz++29l//3LXW/mHhGw0AACBOaAAAAHFCAwAAiBMaAABAnNAAAADihAYAABAnNAAAgDihAQAAxAkNAAAgTmgAAABxQgMAAIgTGgAAQJzQAAAA4oQGAAAQJzQAAIC4YRzHcepDXBnL0/5j3D/o7efz3v6Pb/X2VVX/+Fdv/92v9fbD0NtztU19ZZ6t+o+xbj6H/aPW/PD6Xu/nV9XOD1/pPcBPvtM8wKK3nwU+55s17zJ34TQuwx1yeNJ/jI4P7vcf45nHevvNjd7+9Ky3T9wh8///9w2+0QAAAOKEBgAAECc0AACAOKEBAADECQ0AACBOaAAAAHFCAwAAiBMaAABAnNAAAADihAYAABAnNAAAgDihAQAAxAkNAAAgTmgAAABxQgMAAIgbxnEcpz7EuVmte/vjk97+4Li3r6o6az6HR3d6+9/+tbevqnrhud7+kWv9MzCNy3DdnJxNu9/Z6u2rajkOrf3WUfMue+PvvX1V/y786hd6++7vk4tg7rPGj+N7P/9Pa//qi3u9A9z5sLc/WPb2Vf33Q0/c6O0D7wP+ebLR2j+223v97AzNO2R2AV6/D3CHXIBTAgAAl43QAAAA4oQGAAAQJzQAAIA4oQEAAMQJDQAAIE5oAAAAcUIDAACIExoAAECc0AAAAOKEBgAAECc0AACAOKEBAADECQ0AACBOaAAAAHFCAwAAiBvGcRynPsS56T7Vw2Vvf3TS2yfceqS3f+v99hE++swTrf3uYmjth6G3h5bVurd/4+3+Gfa2e/ubu7394zd6+6r+fd61bv782QW4h9yF0+jeAcfN9xL7R719VdXZqrd/873e/lM3evuquv/s0639zmbv9bM5vxqvP99oAAAAcUIDAACIExoAAECc0AAAAOKEBgAAECc0AACAOKEBAADECQ0AACBOaAAAAHFCAwAAiBMaAABAnNAAAADihAYAABAnNAAAgDihAQAAxG1MfYCHyvZi6hNU3b437f65p3r7qtrb1LdX1mo99Qn6Ts56+8Nlb//oTm9fVfXLN3r73/ylt3/5B719VdX2Zv8xJnUB7sH5MPUJ+Dg25r392ap/hl/9ubf//su9/es/7e2ram/R+/c/8/J5IBfgpgMAAC4boQEAAMQJDQAAIE5oAAAAcUIDAACIExoAAECc0AAAAOKEBgAAECc0AACAOKEBAADECQ0AACBOaAAAAHFCAwAAiBMaAABAnNAAAADiNqY+wLk6Oevt9496+3sHvX1V1Suv9fY//mZvvx57+6qqsfkYw9A/A9OYXYK/u7NVb3+07O2vX+vtq6p2tnr7H73U23fv0qr+v6VF89ff5tX69UnQYfMO6L5+Eq+/cd3bv/1q/wxN/z7sPYcn9ua9A3TfC10ED/B+zDcaAABAnNAAAADihAYAABAnNAAAgDihAQAAxAkNAAAgTmgAAABxQgMAAIgTGgAAQJzQAAAA4oQGAAAQJzQAAIA4oQEAAMQJDQAAIE5oAAAAcUIDAACIG8ZxHKc+xLnpPtV1c3/7Xm9fVfX7v/X2L36pt9+Y9/ZVVbOhtx+ae6azWk99gr557/OZVfMemb97p7Wvqv5ddnOvf4auve1pf757aBoX4S3Lnf3e/rU/9Pbf+Epvf/+gt6+qOjrp7R+/0T9D186iNb+97N0Bjyx6+51F4LuC7uvpAe5B32gAAABxQgMAAIgTGgAAQJzQAAAA4oQGAAAQJzQAAIA4oQEAAMQJDQAAIE5oAAAAcUIDAACIExoAAECc0AAAAOKEBgAAECc0AACAOKEBAADEDeM4jlMf4tx0n+q9g97+zfd6+6paffmzrf18NrTPAB/bRbhuhof8NfDmu+2HWD77ZGu/dXDUO8Bio7evqrq26D8GTGF52tvf/ai3T7wPmM97++7vgnngc/Ibu635naN1a7+36D2HreZfQVWdy+9D32gAAABxQgMAAIgTGgAAQJzQAAAA4oQGAAAQJzQAAIA4oQEAAMQJDQAAIE5oAAAAcUIDAACIExoAAECc0AAAAOKEBgAAECc0AACAOKEBAADEDeM4jlMf4qHR/aM6Pu2f4WzV2+9t988wtWGY+gRcZat1a35avX+/m8fL1r6qqu5+1Nvfut4/Q9dG83OyWXd/Ce4hd+k09o96+4PjaX9+VdXdg97+i8/2zzC1D5t/jsvme8JHd3r7qqqdrd7+Ae4Q32gAAABxQgMAAIgTGgAAQJzQAAAA4oQGAAAQJzQAAIA4oQEAAMQJDQAAIE5oAAAAcUIDAACIExoAAECc0AAAAOKEBgAAECc0AACAOKEBAADEDeM4jlMf4rx0n+q6+Sc1nw29BwAm171HTla9n7+Y9/ZVVcPgLoLJTP22q/tmJsH7ocvhAX6X+EYDAACIExoAAECc0AAAAOKEBgAAECc0AACAOKEBAADECQ0AACBOaAAAAHFCAwAAiBMaAABAnNAAAADihAYAABAnNAAAgDihAQAAxAkNAAAgTmgAAABxwziO49SHAAAALhffaAAAAHFCAwAAiBMaAABAnNAAAADihAYAABAnNAAAgDihAQAAxAkNAAAgTmgAAABxQgMAAIgTGgAAQJzQAAAA4oQGAAAQJzQAAIA4oQEAAMQJDQAAIE5oAAAAcUIDAACIExoAAECc0AAAAOKEBgAAECc0AACAOKEBAADECQ0AACBOaAAAAHH/BesadSgsNFyYAAAAAElFTkSuQmCC;" parent="1" vertex="1">
          <mxGeometry x="590" y="423" width="794" height="247" as="geometry" />
        </mxCell>
        <mxCell id="injqJZy0U-lsbSJqWPh--4" value="" style="shape=image;verticalLabelPosition=bottom;labelBackgroundColor=default;verticalAlign=top;aspect=fixed;imageAspect=0;image=data:image/png,iVBORw0KGgoAAAANSUhEUgAAAxoAAAD3CAYAAACaciKTAAAAOXRFWHRTb2Z0d2FyZQBNYXRwbG90bGliIHZlcnNpb24zLjguMywgaHR0cHM6Ly9tYXRwbG90bGliLm9yZy/H5lhTAAAACXBIWXMAAA9hAAAPYQGoP6dpAAAPqUlEQVR4nO3dXahta10G8P9Yc8411157n7P3cZ8P0zRDPUWebkyqCzVB+iBJogLTiy6iso+LoCAoUQxCCLqLPiiCCtJuJBQMyszKLhJE0ooik0xEO+I++3ysvfeca84xRxd1u9wznr9n7XXO73c9njHeMcY73jGeNS/WME3TVAAAAI0OznsAAADAc4+iAQAAtFM0AACAdooGAADQTtEAAADaKRoAAEA7RQMAAGinaAAAAO3mz9qROv4v4Ok2yy8XUXwzZucwb6h1w3aM8tN8FuW3uyheVVWL2RDlx112Hw6yw7cYhntgEBfRjWfyfVy/L8una1l672+tsnxV1fEyy4fr0Geeyt8H1y5lC+pD23U2gKvHUXy9za/Bcv48XEfG8CU0y1/E6bdAegpHp+HcTZ//qqonb0Xx6drlKD+E3wEd1lP2/C2zz7EWtzfZdTw+vPvz5BcNAACgnaIBAAC0UzQAAIB2igYAANBO0QAAANopGgAAQDtFAwAAaKdoAAAA7RQNAACgnaIBAAC0UzQAAIB2igYAANBO0QAAANopGgAAQDtFAwAAaDdM0zTts+F6u9dmZ9rvKF/dYpblZwdDlB932Umkx3/OWG+y/OE8y4f3scMUzoVhuKBzKV0I7oHzXm2yczhahOeQPj9VtZlnz9DvfPwkyv/gt1yK8lVVt8P7kP6V7dEHs2s4NixD6SvlQq4j4y6Kn2zzIczP+V1+FL4CW96B2zHLr7J17MZimR2/ql5wKVsF/vIzqyj/iuuLKP/y6+lEqNqzApxpnzXELxoAAEA7RQMAAGinaAAAAO0UDQAAoJ2iAQAAtFM0AACAdooGAADQTtEAAADaKRoAAEA7RQMAAGinaAAAAO0UDQAAoJ2iAQAAtFM0AACAdooGAADQTtEAAADazffdcDkLjzQM4Q6qaprCeJZ/Llhvs2twmM6Dqhp+4NeyHXzonVl+F86D5SLLV9VpeB+Wez+595iTVRRfXzqKh5CuZUc1hiPIbt50mN/89Wk2/3782y5H+VubfC1+6a+/N8r/2y+8NRtA+E67c7rLjl9VV9KpMGt4Lz/LNpWN+VK+fJ//ZQvn3jf8xpfiIXzul74uyv/eP66j/Nu/o+Fj5MtPRvHlPHsfvfxKtg6m33NVVesx28f9y7vPRb9oAAAA7RQNAACgnaIBAAC0UzQAAIB2igYAANBO0QAAANopGgAAQDtFAwAAaKdoAAAA7RQNAACgnaIBAAC0UzQAAIB2igYAANBO0QAAANopGgAAQLthmqZpry333OzMeJT+X8MwNOwlMO6y/Oz8e92+t/ssw9W3xmNY3XhflD/6ww9nA/jJ78ny4TWsqqrznsvnZL3Nrt1Bw2VL9zEbxyg/zWdR/ul1Pv+Ws+wi/NEnb0X5t//UO6J8VVW99xez/Ef/KYpvfub7o/xil82jqqrbU/ZOOT48/3fS/9tmG8VPdvk5X1lm+1htsmc4/ZRY3F5lO2gwXj6K8rPf/4t4DJuf+N4ov/jTv43y67d8V5RfzvMX4mbM5uJij3fJBVxlAACAe52iAQAAtFM0AACAdooGAADQTtEAAADaKRoAAEA7RQMAAGinaAAAAO0UDQAAoJ2iAQAAtFM0AACAdooGAADQTtEAAADaKRoAAEA7RQMAAGg3TNM07bPhuNtrszPNDoYoX1VV+w31bEPDGBKbbb6PxTyKn6x3Uf7K+/8+yldVnfzwa6N8dgZV9x1m82DYjuEIqsbZLMq3PE/n4anbWf7WKh7C5pEHovzi8ZtRfv1wdvyT0/QJqHr1bz4e5T/98y+M8h/5bH4ff+hVx9kObp5k+XQuHuR/51s9lM2lo8UFXUcCe37yfE2Fn1M1S78llossfy9Yb+Jd/PG/nEb5H3v15SifzsXhS9m7qKqqXvSCfB934RcNAACgnaIBAAC0UzQAAIB2igYAANBO0QAAANopGgAAQDtFAwAAaKdoAAAA7RQNAACgnaIBAAC0UzQAAIB2igYAANBO0QAAANopGgAAQDtFAwAAaDdM0zTtteWem51lPUbxqqpazvJ9RE63Wf5wHg9hs8vyi1f9XLaDf/2tLF9Vj9/KTuLB46wfb8NreNgwD3fZ41SzgyEfxHkYs4u/qfy800uXXvv/fCJbR55ehxO4ql72QLYWXf3uX4nyJ3/1nihfVTUP78PRU89kA7h6nOVXmyxfVZvjoyi/mF3AdeTOaZZveA//9AefjPK/+31XsgGEc38zz69BPHfe+SdZ/t1vzfJV9Zmb2YfpKy+HL/IbT0fx6cXXs+NX1Tr8rD1a3H0e+EUDAABop2gAAADtFA0AAKCdogEAALRTNAAAgHaKBgAA0E7RAAAA2ikaAABAO0UDAABop2gAAADtFA0AAKCdogEAALRTNAAAgHaKBgAA0E7RAAAA2ikaAABAu2GapmmvLTfb7EgHDZ1mFu7j1iofQ2C8tIz3Mfvop7MdfOc3RfHPb+bZ8avqJVdn8T4Su/1m/Jlmez4yX30nz9OOv95k+XnD3DkN17LD7Bn49yfGKP/oYXgNq6o+8qks/6bXRPG/+2J2DaqqXv/14Vq0CPOf+3IUH1/6UHb8qrq1ydai+5cXbx0awwV8vc3X7+NhF+VvbIYof+0ou2+zg+z4VVX1ha9E8enF16P8X392HeWrqt74iqN4H4nNmM3FMZuGVVV1dJB+EN19Ll68VQYAALjnKRoAAEA7RQMAAGinaAAAAO0UDQAAoJ2iAQAAtFM0AACAdooGAADQTtEAAADaKRoAAEA7RQMAAGinaAAAAO0UDQAAoJ2iAQAAtFM0AACAdvO9t1zsv+m9ajpeRvlhGKL8LEr/n5c+lOXvnEbxl1zPrmFVVXYVq1bbLL9Mp/IU5p/HpsPs4g+rTT6Ip25F8fWD16L8o4fZOTw+y5/BR8L7cBKuZi97IF0FKn8n3Xgmy7/s4Sje8T64f9lwHS+YXbj+Luf5NTvZZH+jvX4pG0P6Cpqm/CU2hGtIeh/f+PJ8HaybJ1n+gStRfHFyJ8vvdlG+qmp93+Uov89d8IsGAADQTtEAAADaKRoAAEA7RQMAAGinaAAAAO0UDQAAoJ2iAQAAtFM0AACAdooGAADQTtEAAADaKRoAAEA7RQMAAGinaAAAAO0UDQAAoJ2iAQAAtBumaZr22nLPzc5ycprlq6ouHw5RfruLhxBZvOGX8538zXuy/Ic+keXf/O1Zvqo2YzYX5mE93oVTMc1XVa232U6uLC/m3whWm+y8j1areAzTlaMoP9x4Jsp/8fBylH/Rm98V5auq6gPvyPJ/8OEs/7bXZ/mqGh++FuVnm212/MU8O/44RvmqqgrHcBHdPs1e5MdDw4dAeN33/ew6y7AN586f/UOWr6p602uy/Cf+I8u/5hVZvqo+9XT2Hn3skUU8hsRB9klcVfl38WJ290FczK8VAADgnqZoAAAA7RQNAACgnaIBAAC0UzQAAIB2igYAANBO0QAAANopGgAAQDtFAwAAaKdoAAAA7RQNAACgnaIBAAC0UzQAAIB2igYAANBO0QAAANopGgAAQLthmqZpry3HXXakWUOnCcew2g1R/uhgv0t1ppNVlq+q+uRns/wbHsvHENqEU2kX3oblPJsHLTbbLL+Y94zjWTamN6/B7Is3sh08ci2Kr2oW5T/3ZDh3quqb//xj2Q5+9HVZfp5dg6qqOg2vw0G4DiwXUbzjWZil53AR3Qrfo5ePzn0MtxeHUf54GrPjD/nzdzyGz99h+A5Ln/+OMezCj5l74T1+5zTLX7r7XPaLBgAA0E7RAAAA2ikaAABAO0UDAABop2gAAADtFA0AAKCdogEAALRTNAAAgHaKBgAA0E7RAAAA2ikaAABAO0UDAABop2gAAADtFA0AAKCdogEAALQbpmma9tlwtdlrszMdLYYoX1W151DPFI/g3e/L8r/6tnQEdfPOLsofh/dhOWT3oKpqOsjGMAzhnQznUYv0HC6q9SaKP12zeAj3HYbzLx3A+z4WxW//yGvTEdQsfAYPw9sQP8NVVWO2FtZ2zPLLRRRP32dVVUN6Dot5PIZn2+3T7L4v5/ncCx+fGnbhvf/Ax6P4b7/osez4VfWz739/toN3vSWKb46PsuNX1WK1jvIf/K/sPr7uG5dR/oFLDb8VPHU7y189vusmftEAAADaKRoAAEA7RQMAAGinaAAAAO0UDQAAoJ2iAQAAtFM0AACAdooGAADQTtEAAADaKRoAAEA7RQMAAGinaAAAAO0UDQAAoJ2iAQAAtFM0AACAdsM0TdN5D2JfmzEb6iKtVV+6GcXXDz8QDqBqHp7D7GCIx/B8N+7yR2YzZvmjxQW9j+tNlm+49qv5Isrf2uyi/PWvPBHlb7/wepSvqjrenEb59XIZ5Q9nUbyqqoZVOJcuHUbxdB1omMrx+2AYLuA6En6yrMO1t8Ny3IY7yNawGrM1rKqqttmFHBfzKD9L3yVVNR1l1/HOJpuLx1/4cpSvR65l+ar67112DV54390Xc79oAAAA7RQNAACgnaIBAAC0UzQAAIB2igYAANBO0QAAANopGgAAQDtFAwAAaKdoAAAA7RQNAACgnaIBAAC0UzQAAIB2igYAANBO0QAAANopGgAAQLthmqZpry032+xIB3mneTocwn2HQ5Q/HbPjf/7J8ASq6pUPLrIdjLsoPh1k17CqahjCfYTnsKns+Ittfh9rGd7Hi+pemH/pDrbZQjDNZ1H+nx/fRPmqqm+9muVX82z+HlW4mFbl75T0Ph7Oo3w+kys+h1pk53AeNuN+nyxnWXT8eTV9h62zZ3h1kN23jm+RRx8K32E3T7L8/cdZvqqeCpfSq7PwfRa+C4bT/D5u5tlcWszu/iz4RQMAAGinaAAAAO0UDQAAoJ2iAQAAtFM0AACAdooGAADQTtEAAADaKRoAAEA7RQMAAGinaAAAAO0UDQAAoJ2iAQAAtFM0AACAdooGAADQTtEAAADaKRoAAEC7YZqmaa8t99zsLGMWr6qq2cGQ7yQx7qL41DD+c74CVUM+gnGXTYZ0Huw75c8SDr+qqtKpMDTch+etzTbLhxPg9jCL8sdDtg7dExbzfB/hc5yuZek6dmeTLySXD7NzuIjrSHrdO5z3t0h6DTZjPoajxfleg/Q9XlU1bMMLEa5j98K3yGz82l8Dv2gAAADtFA0AAKCdogEAALRTNAAAgHaKBgAA0E7RAAAA2ikaAABAO0UDAABop2gAAADtFA0AAKCdogEAALRTNAAAgHaKBgAA0E7RAAAA2ikaAABAu2Gapum8BwEAADy3+EUDAABop2gAAADtFA0AAKCdogEAALRTNAAAgHaKBgAA0E7RAAAA2ikaAABAO0UDAABo9z+8JfRAzTO6EQAAAABJRU5ErkJggg==;" parent="1" vertex="1">
          <mxGeometry x="590" y="670" width="794" height="247" as="geometry" />
        </mxCell>
        <mxCell id="injqJZy0U-lsbSJqWPh--5" value="Explained Image" style="text;html=1;align=center;verticalAlign=middle;resizable=0;points=[];autosize=1;strokeColor=none;fillColor=none;fontSize=40;" parent="1" vertex="1">
          <mxGeometry x="270" y="20" width="320" height="60" as="geometry" />
        </mxCell>
        <mxCell id="injqJZy0U-lsbSJqWPh--6" value="BHEM&lt;div style=&quot;font-size: 40px;&quot;&gt;(proposed)&lt;/div&gt;" style="text;html=1;align=center;verticalAlign=middle;resizable=0;points=[];autosize=1;strokeColor=none;fillColor=none;fontSize=40;" parent="1" vertex="1">
          <mxGeometry x="320" y="242" width="220" height="110" as="geometry" />
        </mxCell>
        <mxCell id="injqJZy0U-lsbSJqWPh--7" value="SHAP" style="text;html=1;align=center;verticalAlign=middle;resizable=0;points=[];autosize=1;strokeColor=none;fillColor=none;fontSize=40;" parent="1" vertex="1">
          <mxGeometry x="365" y="514" width="130" height="60" as="geometry" />
        </mxCell>
        <mxCell id="injqJZy0U-lsbSJqWPh--8" value="LIME" style="text;html=1;align=center;verticalAlign=middle;resizable=0;points=[];autosize=1;strokeColor=none;fillColor=none;fontSize=40;" parent="1" vertex="1">
          <mxGeometry x="370" y="761" width="120" height="60" as="geometry" />
        </mxCell>
      </root>
    </mxGraphModel>
  </diagram>
</mxfile>
